# xmcd
#
# Track frame offsets:
#	150
#	17780
#	33265
#	51425
#	66617
#	90942
#	108315
#	125590
#	143955
#	160907
#	179537
#	197035
#
# Disc length: 2827 seconds
#
# Revision: 4
# Processed by: cddbd v1.5.2PL0 Copyright (c) Steve Scherf et al.
# Submitted via: EasyCDDAExtractor 15.3.0.1
#
DISCID=ab0b090c
DTITLE=Pandora - En Carne Viva (Mexico Edition)
DYEAR=2002
DGENRE=Latin
TTITLE0=Quiero Dormir Cansada
TTITLE1=Frente A Frente
TTITLE2=Te Propongo Separarnos
TTITLE3=En Carne Viva
TTITLE4=Popurri Emmanuel (Tengo Mucho Que Aprender De Ti, Pobre Diablo, Insopo
TTITLE4=rtablemente Bella)
TTITLE5=Si La Noche De Anoche Volviera (Invitado Especial David Hidalgo De ''L
TTITLE5=os Lobos'')
TTITLE6=Procuro Olvidarte
TTITLE7=Un Toque De Locura
TTITLE8=Todo Se Derrumbo Dentro De Mi (Invitado Especial Emmanuel)
TTITLE9=Se Nos Rompio El Amor
TTITLE10=Popurri Jose Jose (El Amar Y El Querer, Lagrimas, Lo Dudo)
TTITLE11=Que No Se Rompa La Noche
EXTD=YEAR: 2002 ID3G: 116
EXTT0=
EXTT1=
EXTT2=
EXTT3=
EXTT4=
EXTT5=
EXTT6=
EXTT7=
EXTT8=
EXTT9=
EXTT10=
EXTT11=
PLAYORDER=
